<svg xmlns="http://www.w3.org/2000/svg" width="20" height="20" viewBox="0 0 20 20"><defs><style>.a{fill:#fff;stroke:#3774ff;}.b{fill:#3774ff;}.c{stroke:none;}.d{fill:none;}</style></defs><g transform="translate(-290 -246)"><g class="a" transform="translate(290 246)"><rect class="c" width="20" height="20" rx="3"/><rect class="d" x="0.5" y="0.5" width="19" height="19" rx="2.5"/></g><path class="b" d="M21.661,13.211l-.917-.943a.2.2,0,0,0-.146-.062h0a.189.189,0,0,0-.146.063L14.1,18.67l-2.312-2.312a.2.2,0,0,0-.292,0l-.927.927a.208.208,0,0,0,0,.3L13.484,20.5a.922.922,0,0,0,.609.3.967.967,0,0,0,.6-.286H14.7l6.964-7A.223.223,0,0,0,21.661,13.211Z" transform="translate(283.943 239.502)"/></g></svg>