<svg xmlns="http://www.w3.org/2000/svg" width="24" height="24" viewBox="0 0 24 24"><defs><style>.a{fill:#3b45ff;}</style></defs><path class="a" d="M1.436,1.436h5.5V0H0V6.939H1.436Zm0,0"/><path class="a" d="M366.992,0V1.436h5.5v5.5h1.436V0Zm0,0" transform="translate(-349.931)"/><path class="a" d="M1.436,366.992H0v6.939H6.939V372.5h-5.5Zm0,0" transform="translate(0 -349.931)"/><path class="a" d="M372.5,372.5h-5.5v1.436h6.939v-6.939H372.5Zm0,0" transform="translate(-349.931 -349.931)"/><path class="a" d="M86.9,79.594A7.073,7.073,0,0,0,82,86.32v.7H98.057v-.7a7.073,7.073,0,0,0-4.9-6.723,5.153,5.153,0,1,0-6.256,0Z" transform="translate(-78.076 -66.975)"/></svg>